<svg id="Capa_1" data-name="Capa 1" xmlns="http://www.w3.org/2000/svg" viewBox="0 0 862.8 246.43"><defs><style>.cls-1{fill:#0078c5;}.cls-2{fill:#ffb000;}.cls-3{fill:#fe9100;}.cls-4{fill:#fa6300;}</style></defs><rect class="cls-1" x="493.16" width="123.22" height="123.22" transform="translate(1109.53 123.22) rotate(180)"/><path class="cls-2" d="M599.66,29.7h-17V21.18H571.51V12.43h11.11V0H526.86V12.43h11.27v8.75H526.86V29.7h-17V18.15H493.16V27h8.37V38.89h-8.37v8.68h16.66V41h22.82V53H549.3l-5.63,12-22.22,0V76.56h11.09L515.4,94.28l11.38,17.36H510.09v11.58H600V111.64H582.75L594.06,94,577.2,76.56h11.47V65H566l-.07-.07L560.52,53h16.94V41h22.2v6.55h16.71V38.89h-7.85V27h7.85V18.15H599.66Zm-50.86.23V18.3h11.63V29.93ZM577.33,94l-11.39,17.65H543.57L532.45,94l16.7-17.43h11Z"/><rect class="cls-2" width="123.22" height="123.22" transform="translate(0 123.22) rotate(-90)"/><path class="cls-3" d="M50.46,0l5.39,12H38.91V23.89H16.71V17.34H0V26H7.85V38H0v8.81H16.71V35.21h17v8.53H44.86v8.74H33.75V64.91H44.86V82.66H33.75V93.88H11.1v11.88H0v11.77H22.32V105.76H44.86V93.88H56l-5.65,18H56v11.37h11.3V111.85h5.39l-5.39-18h11v11.88h22.25v11.77h22.73V105.76H112.53V93.88h-23V82.66H78.24V64.91H89.51V52.48H78.24V43.74H89.51V35.21h17V46.76h16.67V38h-8.38V26h8.38V17.34H106.55v6.55H83.73V12H67.07L72.69,0ZM67.57,35V46.61H55.94V35Z"/><rect class="cls-3" x="739.59" width="123.22" height="123.22" transform="translate(739.59 862.8) rotate(-90)"/><path class="cls-1" d="M846.09,29.7h-17V21.18H818V12.43h11.1V0H773.29V12.43h11.27v8.75H773.29V29.7h-17V18.15H739.59V27H748V38.89h-8.38v8.68h16.66V41h22.82V53h16.66l-5.62,12-22.22,0V76.56H779L761.83,94.28l11.38,17.36H756.52v11.58h90V111.64H829.18L840.49,94l-16.86-17.4h11.48V65h-22.7l-.07-.07L807,53h16.93V41h22.2v6.55H862.8V38.89H855V27h7.85V18.15H846.09Zm-50.86.23V18.3h11.63V29.93ZM823.76,94l-11.39,17.65H790L778.88,94l16.7-17.43h11Z"/><rect class="cls-3" x="246.72" width="123.22" height="123.22" transform="translate(246.72 369.94) rotate(-90)"/><path class="cls-4" d="M297.19,0l5.38,12H285.64V23.89H263.43V17.34H246.72V26h7.85V38h-7.85v8.81h16.71V35.21h17.05v8.53h11.1v8.74h-11.1V64.91h11.1V82.66h-11.1V93.88H257.83v11.88H246.72v11.77H269V105.76h22.54V93.88h11.1l-5.65,18h5.65v11.37H314V111.85h5.4l-5.4-18h11v11.88h22.25v11.77h22.73V105.76H359.25V93.88h-23V82.66H325V64.91h11.27V52.48H325V43.74h11.27V35.21h17V46.76h16.66V38h-8.38V26h8.38V17.34H353.28v6.55H330.45V12H313.79L319.41,0ZM314.3,35V46.61H302.66V35Z"/><rect class="cls-1" x="123.22" width="123.22" height="123.22"/><path class="cls-2" d="M139.92,93.52H157V102h11.1v8.75H157v12.43h55.75V110.79H201.46V102h11.26V93.52h17.05v11.55h16.66V96.25h-8.38V84.32h8.38V75.64H229.77v6.55H207V70.25H190.28l5.63-12,22.22,0V46.65H207.05l17.13-17.72L212.8,11.58h16.7V0H139.55V11.58h17.29L145.53,29.26l16.86,17.39H150.91v11.6l22.7,0,.07.08,5.38,11.94H162.13V82.19H139.92V75.64h-16.7v8.68h7.85V96.25h-7.85v8.82h16.7Zm50.87-.24v11.64H179.16V93.28ZM162.26,29.22l11.38-17.64H196l11.12,17.64-16.7,17.43h-11Z"/><rect class="cls-2" x="616.37" width="123.22" height="123.22" transform="translate(739.59 -616.37) rotate(90)"/><path class="cls-3" d="M689.12,123.21l-5.38-11.94h16.93V99.33h22.21v6.55h16.71V97.2h-7.85V85.27h7.85V76.45H722.88V88h-17V79.48h-11.1V70.73h11.1V58.3h-11.1V40.55h11.1V29.34h22.65V17.45h11.11V5.68H717.27V17.45H694.73V29.34h-11.1l5.65-18h-5.65V0h-11.3V11.36h-5.4l5.4,18h-11V17.45H639.1V5.68H616.37V17.45h10.69V29.34h23V40.55h11.27V58.3H650.08V70.73h11.27v8.75H650.08V88H633V76.45H616.37v8.82h8.38V97.2h-8.38v8.68H633V99.33h22.83v11.94h16.66l-5.62,12h22.22ZM672,88.24V76.6h11.64V88.24Z"/><rect class="cls-2" x="369.94" width="123.22" height="123.22" transform="translate(493.16 -369.94) rotate(90)"/><path class="cls-4" d="M386.65,93.52h17V102H414.8v8.75H403.69v12.43h55.76V110.79H448.18V102h11.27V93.52h17v11.55h16.67V96.25h-8.38V84.32h8.38V75.64H476.49v6.55H453.67V70.25H437l5.63-12,22.22,0V46.65H453.78l17.13-17.72L459.53,11.58h16.69V0h-90V11.58h17.29l-11.3,17.68,16.85,17.39H397.64v11.6l22.69,0,.07.08,5.39,11.94H408.85V82.19h-22.2V75.64H369.94v8.68h7.85V96.25h-7.85v8.82h16.71Zm50.86-.24v11.64H425.88V93.28ZM409,29.22l11.39-17.64h22.37l11.12,17.64-16.7,17.43h-11Z"/><rect class="cls-1" x="246.43" y="123.22" width="123.22" height="123.22"/><path class="cls-2" d="M263.14,216.73h17.05v8.53h11.1V234h-11.1v12.43h55.75V234H324.67v-8.74h11.27v-8.53H353v11.55h16.66v-8.81h-8.38V207.54h8.38v-8.68H353v6.55H330.16V193.47H313.5l5.63-12,22.22,0V169.87H330.27l17.13-17.72L336,134.8h16.69V123.22H262.76V134.8h17.29l-11.3,17.68,16.85,17.39H274.13v11.6l22.69,0,.08.07,5.38,11.95H285.34v11.94h-22.2v-6.55H246.43v8.68h7.85v11.93h-7.85v8.81h16.71ZM314,216.5v11.63H302.37V216.5Zm-28.53-64.06,11.39-17.64h22.37l11.12,17.64-16.7,17.43h-11Z"/><rect class="cls-2" x="739.59" y="123.22" width="123.22" height="123.22" transform="translate(986.02 -616.37) rotate(90)"/><path class="cls-3" d="M812.34,246.43l-5.38-12h16.93V222.54h22.2v6.55H862.8v-8.68H855V208.48h7.85v-8.81H846.09v11.55h-17V202.7H818V194h11.1V181.52H818V163.77h11.1V152.56H851.7V140.67h11.1V128.9H840.49v11.77H818v11.89H806.84l5.65-18h-5.65V123.22h-11.3v11.36h-5.39l5.39,18h-11V140.67H762.32V128.9H739.59v11.77h10.69v11.89h23v11.21h11.27v17.75H773.29V194h11.27v8.75H773.29v8.52h-17V199.67H739.59v8.81H748v11.93h-8.38v8.68h16.66v-6.55h22.82v11.94h16.66l-5.62,12Zm-17.11-35V199.82h11.63v11.63Z"/><rect class="cls-3" y="123.22" width="123.22" height="123.22" transform="translate(246.43 123.22) rotate(90)"/><path class="cls-1" d="M16.71,216.73h17v8.53H44.86V234H33.75v12.43H89.51V234H78.24v-8.74H89.51v-8.53h17v11.55h16.67v-8.81h-8.38V207.54h8.38v-8.68H106.55v6.55H83.73V193.47H67.07l5.63-12,22.22,0V169.87H83.84L101,152.15,89.59,134.8h16.69V123.22H16.33V134.8H33.62l-11.3,17.68,16.85,17.39H27.7v11.6l22.69,0,.07.07,5.39,11.95H38.91v11.94H16.71v-6.55H0v8.68H7.85v11.93H0v8.81H16.71Zm50.86-.23v11.63H55.94V216.5ZM39,152.44,50.43,134.8H72.8l11.12,17.64-16.7,17.43h-11Z"/><rect class="cls-3" x="492.86" y="123.22" width="123.22" height="123.22" transform="translate(739.29 -369.65) rotate(90)"/><path class="cls-4" d="M565.62,246.43l-5.39-11.94h16.94v-12h22.2v6.55h16.71v-8.68h-7.85V208.48h7.85v-8.81H599.37v11.55h-17V202.7h-11.1V194h11.1V181.52h-11.1V163.77h11.1V152.56H605V140.67h11.1V128.9H593.76v11.77H571.22v11.89h-11.1l5.65-18h-5.65V123.22h-11.3v11.36h-5.4l5.4,18h-11V140.67H515.59V128.9H492.86v11.77h10.69v11.89h23v11.21h11.27v17.75H526.57V194h11.27v8.75H526.57v8.52H509.52V199.67H492.86v8.81h8.38v11.93h-8.38v8.68h16.66v-6.55h22.83v12H549l-5.62,11.94Zm-17.11-35V199.82h11.63v11.63Z"/><rect class="cls-1" x="616.37" y="123.22" width="123.22" height="123.22" transform="translate(1355.96 369.65) rotate(180)"/><path class="cls-2" d="M722.88,152.91h-17v-8.52h-11.1v-8.75h11.1V123.22H650.08v12.42h11.27v8.75H650.08v8.52H633V141.36H616.37v8.82h8.38v11.93h-8.38v8.68H633v-6.55h22.83v11.94h16.66l-5.63,12-22.22,0v11.62h11.08L638.62,217.5,650,234.85H633.31v11.58h89.94V234.85H706l11.3-17.68-16.86-17.39h11.48v-11.6l-22.69,0-.08-.07-5.38-11.95h16.93V164.24h22.21v6.55h16.71v-8.68h-7.85V150.18h7.85v-8.82H722.88Zm-50.87.24V141.52h11.64v11.63Zm28.53,64.06-11.38,17.64H666.79l-11.13-17.64,16.71-17.43h11Z"/><rect class="cls-2" x="123.22" y="123.22" width="123.22" height="123.22" transform="translate(0 369.65) rotate(-90)"/><path class="cls-3" d="M173.68,123.22l5.38,11.94H162.13v12H139.92v-6.55h-16.7v8.67h7.85v11.94h-7.85V170h16.7V158.43H157V167h11.1v8.75H157v12.43h11.1v17.75H157v11.21H134.32V229h-11.1v11.77h22.31V229h22.54V217.09h11.1l-5.64,18h5.64v11.36h11.31V235.07h5.39l-5.39-18h11V229H223.7v11.77h22.73V229H235.74V217.09h-23V205.88H201.46V188.13h11.26V175.7H201.46V167h11.26v-8.52h17.05V170h16.66v-8.81h-8.38V149.23h8.38v-8.67H229.77v6.55H207v-12H190.28l5.62-11.94Zm17.11,35v11.63H179.16V158.2Z"/><rect class="cls-2" x="369.65" y="123.22" width="123.22" height="123.22" transform="translate(246.43 616.08) rotate(-90)"/><path class="cls-4" d="M476.15,152.91h-17v-8.52H448v-8.75h11.1V123.22H403.36v12.42h11.26v8.75H403.36v8.52H386.31V141.36H369.65v8.82H378v11.93h-8.38v8.68h16.66v-6.55h22.82v11.94h16.66l-5.62,12H398v11.62H409L391.89,217.5l11.39,17.35h-16.7v11.58h89.95V234.85H459.24l11.31-17.68-16.86-17.39h11.48v-11.6l-22.7,0-.07-.07L437,176.18H454V164.24h22.2v6.55h16.71v-8.68H485V150.18h7.85v-8.82H476.15Zm-50.86.24V141.52h11.63v11.63Zm28.53,64.06-11.39,17.64H420.06l-11.12-17.64,16.7-17.43h11Z"/></svg>