<svg id="Capa_1" data-name="Capa 1" xmlns="http://www.w3.org/2000/svg" viewBox="0 0 500 500"><defs><style>.cls-1{fill:#fff;}</style></defs><circle class="cls-1" cx="250" cy="250" r="250"/><path class="cls-1" d="M154.9,134.25h0c12.23-13.09,29.15-21.17,49.67-22.31,59.17-3.3,136.75,54.06,163.84,126.63,17.83,47.79,12.64,90.78-9.87,115.52h0c-14.78,18-45.6,39.24-85.27,33S189.19,355,154,305s-35.2-87.37-31.62-111.85S145.06,143,154.9,134.25Z"/><path d="M213.19,342.87c-33.13-24.72-59.52-58.68-72.39-93.17l2.37-.89-2.37.89c-15.17-40.64-13.61-79.63,4.27-107,13.12-20.08,34.2-31.91,59.35-33.31C266.25,106,344,165.9,370.78,237.69c15.68,42,14.45,81.77-3.38,109.05-12.68,19.4-32.37,30.38-56.95,31.75a101.64,101.64,0,0,1-21.31-1.18C264.85,373.48,238.16,361.5,213.19,342.87Zm-8.48-228.41c-23.51,1.32-43.19,12.33-55.41,31-17,26-18.36,63.33-3.76,102.44,12.54,33.6,38.3,66.73,70.68,90.89,31.59,23.57,65.84,36.19,93.94,34.62,22.91-1.28,41.24-11.47,53-29.47,16.94-25.91,18-64,2.87-104.51C353.25,205.2,328.73,173,297,148.81c-23.64-18-49-29.58-72.21-33.23A95.69,95.69,0,0,0,204.71,114.46Z"/><path d="M164.35,246.34c-14-34.44-13.41-70.71,1.68-94.67,9.88-15.69,24.9-24.56,43.44-25.66h0c51.33-3,123,52.33,144.76,111.78,13.17,36,12.21,69.66-2.63,92.27-10.13,15.45-25.86,24.23-45.48,25.39a77.16,77.16,0,0,1-16.55-.9C242.41,347.13,186.22,299.94,164.35,246.34Zm45.42-115.28c-16.84,1-30.48,9.06-39.46,23.31C156.08,177,155.59,211.48,169,244.43c23.78,58.29,89,108.8,136.78,106,18-1.07,32.33-9.06,41.55-23.11,13.74-21,14.53-53.76,2.11-87.76-10.18-27.87-32.18-56.15-60.37-77.59-21.4-16.29-44.36-26.91-64.16-30A71,71,0,0,0,209.77,131.06Z"/><path d="M213.19,342.87c-33.13-24.72-59.52-58.68-72.39-93.17l2.37-.89-2.37.89c-15.17-40.64-13.61-79.63,4.27-107,13.12-20.08,34.2-31.91,59.35-33.31C266.25,106,344,165.9,370.78,237.69c15.68,42,14.45,81.77-3.38,109.05-12.68,19.4-32.37,30.38-56.95,31.75a101.64,101.64,0,0,1-21.31-1.18C264.85,373.48,238.16,361.5,213.19,342.87Zm-8.48-228.41c-23.51,1.32-43.19,12.33-55.41,31-17,26-18.36,63.33-3.76,102.44,12.54,33.6,38.3,66.73,70.68,90.89,31.59,23.57,65.84,36.19,93.94,34.62,22.91-1.28,41.24-11.47,53-29.47,16.94-25.91,18-64,2.87-104.51C353.25,205.2,328.73,173,297,148.81c-23.64-18-49-29.58-72.21-33.23A95.69,95.69,0,0,0,204.71,114.46Z"/><path d="M272.87,389.59c39,6.14,70.84-13.49,87.62-33.9a2.53,2.53,0,0,0-3.91-3.21c-15.89,19.33-46,37.92-82.92,32.11-43.26-6.81-86.13-36.34-117.62-81-35.09-49.8-34.6-86.64-31.18-110,3.49-23.82,22.38-49.14,31.72-57.4a2.53,2.53,0,1,0-3.36-3.79c-8.82,7.8-29.47,33.86-33.37,60.46-3.55,24.24-4.08,62.39,32.06,113.67C184.17,352.28,228.26,382.57,272.87,389.59Z"/><path d="M307,302.16a6.33,6.33,0,0,1-11.38,2.22L213.78,185.89a6.33,6.33,0,1,1,10.41-7.19L306,297.19A6.31,6.31,0,0,1,307,302.16Z"/><path d="M248,189.14a6.33,6.33,0,0,1-11.38,2.22l-10.12-14.64a6.32,6.32,0,1,1,10.4-7.2L247,184.17A6.31,6.31,0,0,1,248,189.14Z"/><path d="M319.15,293.38a6.33,6.33,0,0,1-11.38,2.22l-12.45-18a6.33,6.33,0,0,1,10.41-7.19l12.45,18A6.31,6.31,0,0,1,319.15,293.38Z"/><path d="M314.91,263.52a26.13,26.13,0,0,1-10.68,15.57L280.6,296.17a6.32,6.32,0,1,1-7.41-10.25l23.63-17.08c3.66-2.65,5.61-5.78,6-9.56.69-7.18-4.41-16.2-9.44-21.54-8.57-9.11-13.39-8.42-19.81-3.79l-11.66,8.44a6.33,6.33,0,1,1-7.42-10.25l11.67-8.44c18.68-13.51,32.05.7,36.44,5.37,6.62,7,14,19.49,12.82,31.41A25.33,25.33,0,0,1,314.91,263.52Z"/><path d="M281.79,222.08a18.64,18.64,0,0,1-7.48,11.34,6.33,6.33,0,0,1-7.41-10.26c5.9-4.27,1.24-15.8-3.34-22.51-3.06-4.48-7.75-7.75-12.25-8.54a8.19,8.19,0,0,0-6.17,1L222,209.92l-7.42-10.26,23.18-16.76a20.59,20.59,0,0,1,15.76-3.25C261.35,181,269,186.21,274,193.52,280.11,202.44,283.75,213.22,281.79,222.08Z"/></svg>