<svg id="Capa_1" data-name="Capa 1" xmlns="http://www.w3.org/2000/svg" viewBox="0 0 727.33 274.86"><defs><style>.cls-1{fill:#fff;}</style></defs><path class="cls-1" d="M671.93,145.34h9.85l35.7.06v117H231.81l-86,2.37-5.43-112.1L139,125.06l-16.43,22.2a41.4,41.4,0,0,1-4.65,5.44c-9.31,8.51-22.55,12.82-39.34,12.82H19.08V74.77H9.86V10.27H77.38c17.67,0,32.25,7.23,37,14l2.93,4.22h183L303,26.24c9.67-8.07,22.73-12.52,36.76-12.52,21.05,0,36.24,7.39,45.14,22L392.45,48l8.74-11.53a44.1,44.1,0,0,1,3.69-4.3c9.69-10,23.33-15.28,39.44-15.28,12.87,0,24,3.29,32.95,9.78l2.58,1.85H560.6l1.59-7.88,2.2-10.8H717.48V56.71H701.32v45.56H671.93Z"/><polygon points="287.35 185.55 285.19 212.79 294.07 212.79 291.79 185.55 287.35 185.55"/><polygon points="489.49 185.55 487.34 212.79 496.22 212.79 493.94 185.55 489.49 185.55"/><path d="M77.55,102.22H63.92v20.36H77.55c6.73,0,9.84-3.28,9.84-10.18S84.28,102.22,77.55,102.22Z"/><path d="M82,59.6c0-5.86-2.24-8.28-7.76-8.28H63.92V67.88H74.28C79.8,67.88,82,65.47,82,59.6Z"/><path d="M711.18,112.13V66.57h16.15V0h-171l-3.79,18.68H483C472.44,11,459.24,7.05,444.32,7.05c-18.84,0-34.92,6.32-46.51,18.26a54.22,54.22,0,0,0-4.49,5.22C382.77,13.27,364.39,3.86,339.77,3.86c-17,0-32.14,5.69-43.07,14.82H122.45C114.91,7.86,96.41.41,77.38.41H0V84.63H9.23v90.75H78.59c19.33,0,34.79-5.18,46-15.4a50.21,50.21,0,0,0,5.91-6.86l5.9,121.74,95.69-2.63H727.33V135.57l-45.54-.07V112.13Zm-203-76.72h40.9l24,41.62V16.74h37.26V131h-39L546.16,98.08V131h-38ZM395.71,72.52a57.88,57.88,0,0,1,4.93-24.39C408.1,32,423.57,22.46,444.32,22.46c25,0,42.37,14,47.14,36.74a64.9,64.9,0,0,1,1.32,13.32V84.3a64.9,64.9,0,0,1-1.32,13.32,46.69,46.69,0,0,1-10.92,22.17,43.22,43.22,0,0,1-11.37,8.84,52.48,52.48,0,0,1-24.85,5.73c-11.43,0-21.23-2.86-29-8.12a42.37,42.37,0,0,1-15.26-18.76,58.85,58.85,0,0,1-4.37-23.18ZM290.83,69.34a68.07,68.07,0,0,1,.67-9.64A52,52,0,0,1,296.76,43,41.91,41.91,0,0,1,314.47,25.1c7.11-3.78,15.64-5.81,25.3-5.81,22.72,0,38,9.3,44.56,28.06a72.75,72.75,0,0,0-3.82,19H353c-1.75-10.65-4.29-13.82-13.51-13.82-8.9,0-13.67,5.87-13.67,17V85.89c0,11.12,4.77,17,13.67,17,10.32,0,12.39-4.13,13.51-15.57h27.38a75.53,75.53,0,0,0,3.41,20.41,39.36,39.36,0,0,1-14.17,18.44c-7.88,5.48-18.16,8.19-30.61,8.19-11.39,0-21.18-2.92-28.91-8.27l-.21-.14a43.36,43.36,0,0,1-16.36-23.06,62.39,62.39,0,0,1-2.66-18.59ZM201.34,35.41h82c-4.06,7.22-6.08,14.28-7.24,23.48-.18,1.4-.31,2.82-.42,4.25H264.87l-3.93,68.22H217.17l3.25-61.91H199.66Zm-57.41,0h43.54V131H143.92ZM78.59,158.64H26V67.88H16.75V17.16H77.38C105.33,17.16,120,31,120,57c0,10.87-3.62,19.67-9.83,24.85,9.48,6.55,15.18,19.15,15.18,34.16C125.35,143.45,108.78,158.64,78.59,158.64Zm135,96.73-62,1.7-4.94-101.79,50.24-2.85,3,61.66,21-1.2ZM346.24,254l0,.88H297.43l-1.21-14.55h-13.3l-1.23,14.55H230L247.4,152.94h84.53l-2.63,54.13,19.1,1.08Zm69.24-59.42-3,60.3H362.25l3-63.15-19.06-1.07,1.93-40.14.33,0,84.39,4.79-.42,2.43L426,195.16Zm84.11,60.3-1.22-14.55H485.06l-1.22,14.55H432.2l17.34-101.92h85.14L552,254.86ZM711.3,152.94V254.86H665.42V200.41h-3.75l-7.41,54.45h-41.7l-7.39-54.45H601.4v54.45h-33L551,152.94h75.56l3.63,51.1H634l3.63-51.1ZM665,95.38V131H627.78V16.74H710.6V49.83H665V64h29.4V95.38Z"/><path d="M444.32,102.89c8.74,0,13.51-6.2,13.51-17.48V72.67c0-11.12-4.77-17-13.51-17-8.9,0-13.66,5.88-13.66,17V85.41C430.66,96.69,435.42,102.89,444.32,102.89Z"/></svg>